<?xml version="1.0" standalone="no"?>
<!DOCTYPE svg PUBLIC "-//W3C//DTD SVG 20010904//EN"
 "http://www.w3.org/TR/2001/REC-SVG-20010904/DTD/svg10.dtd">
<svg version="1.0" xmlns="http://www.w3.org/2000/svg"
 width="260.000000pt" height="260.000000pt" viewBox="0 0 260.000000 260.000000"
 preserveAspectRatio="xMidYMid meet">
<metadata>
Created by potrace 1.11, written by Peter Selinger 2001-2013
</metadata>
<g transform="translate(0.000000,260.000000) scale(0.100000,-0.100000)"
fill="#000000" stroke="none">
<path d="M0 1300 l0 -1300 1300 0 1300 0 0 1300 0 1300 -1300 0 -1300 0 0
-1300z m881 591 c114 -43 183 -119 214 -236 22 -87 24 -85 -49 -85 l-65 0 -16
55 c-31 108 -110 165 -236 173 -167 10 -279 -62 -279 -180 0 -104 63 -154 287
-228 195 -65 280 -108 337 -171 54 -60 69 -113 64 -216 -4 -96 -32 -157 -101
-219 -119 -107 -349 -131 -514 -54 -125 58 -221 185 -231 306 l-4 54 66 0 c58
0 66 -2 66 -19 0 -81 76 -193 164 -239 45 -24 62 -27 146 -27 113 1 180 25
234 85 55 61 67 168 24 229 -37 53 -99 84 -286 145 -169 55 -228 83 -289 139
-71 65 -88 106 -88 212 0 73 4 98 22 130 63 117 204 179 388 171 59 -3 110
-12 146 -25z"/>
</g>
</svg>
